<?xml version="1.0" encoding="UTF-8" standalone="no"?>
<svg
   width="512"
   height="128.77596"
   viewBox="0 -191.5 512 128.77596"
   version="1.1"
   preserveAspectRatio="xMidYMid"
   id="svg6"
   sodipodi:docname="webflow-svgrepo-com.svg"
   inkscape:version="1.1.2 (0a00cf5339, 2022-02-04)"
   xmlns:inkscape="http://www.inkscape.org/namespaces/inkscape"
   xmlns:sodipodi="http://sodipodi.sourceforge.net/DTD/sodipodi-0.dtd"
   xmlns="http://www.w3.org/2000/svg"
   xmlns:svg="http://www.w3.org/2000/svg">
  <defs
     id="defs10" />
  <sodipodi:namedview
     id="namedview8"
     pagecolor="#ffffff"
     bordercolor="#000000"
     borderopacity="0.25"
     inkscape:pageshadow="2"
     inkscape:pageopacity="0.0"
     inkscape:pagecheckerboard="0"
     showgrid="false"
     fit-margin-top="0"
     fit-margin-left="0"
     fit-margin-right="0"
     fit-margin-bottom="0"
     inkscape:zoom="1.6484375"
     inkscape:cx="58.236967"
     inkscape:cy="64.606635"
     inkscape:window-width="1920"
     inkscape:window-height="1016"
     inkscape:window-x="0"
     inkscape:window-y="27"
     inkscape:window-maximized="1"
     inkscape:current-layer="svg6" />
  <g
     id="g4"
     transform="translate(0,-191.5)">
    <path
       d="m 165.32476,50.35754 c 0,-9.184708 -8.93134,-18.939502 -24.38699,-18.939502 -17.35593,0 -36.42212,12.731906 -39.33589,38.132377 -2.977112,25.653841 12.98528,37.055545 29.07435,37.055545 16.08908,0 24.51367,-6.27094 33.1283,-14.632188 -7.41111,-9.311394 -16.97588,-5.004083 -18.81282,-4.05394 -2.02697,1.013485 -4.62403,2.407027 -9.94482,2.407027 -6.2076,0 -12.54188,-2.787084 -12.54188,-14.37882 39.77929,-3.927255 42.81975,-16.40579 42.81975,-25.590499 z m -19.69962,1.520228 c -0.25337,2.850427 -1.39354,7.727824 -21.53656,10.451565 4.24397,-15.075591 12.35185,-16.215761 16.08908,-16.215761 3.48385,0 5.70085,2.723741 5.44748,5.764196 z m -67.396759,2.47037 c 0,0 -8.551281,26.857355 -9.248052,29.074354 -0.253371,-2.280342 -6.52431,-50.484227 -6.52431,-50.484227 -14.568848,0 -22.360015,10.388223 -26.477298,21.34653 0,0 -10.388222,26.920698 -11.275022,29.201039 -0.06334,-2.090313 -1.58357,-28.884325 -1.58357,-28.884325 C 22.233329,41.172832 9.9448225,33.001608 0,33.001608 l 12.035136,73.034272 c 15.265619,-0.0633 23.500185,-10.388224 27.807497,-21.346532 0,0 9.184708,-23.753557 9.564765,-24.830385 0.06334,1.013485 6.587653,46.176917 6.587653,46.176917 15.328962,0 23.563529,-9.691453 27.997526,-20.269704 L 105.46579,33.001608 c -15.138931,0 -23.120126,10.32488 -27.237409,21.34653 z M 221.57318,31.291352 c -9.43808,0 -16.65916,5.130768 -22.74007,12.668564 v -0.06334 L 204.28059,0 c -12.54188,0 -22.74007,10.894965 -24.7037,27.110726 l -9.50142,78.355064 c 7.22108,0 14.88556,-2.09031 19.00284,-7.411107 3.67389,4.750707 9.18471,8.551277 17.35593,8.551277 21.15651,0 35.66201,-24.57701 35.66201,-47.633796 -0.12668,-21.029816 -10.32488,-27.680812 -20.52307,-27.680812 z m -1.96363,37.688977 c -2.217,12.858592 -9.37474,21.599901 -16.2791,21.599901 -6.96771,0 -9.94483,-3.103798 -9.94483,-3.103798 1.3302,-11.275022 2.15366,-18.179389 4.68737,-24.133614 2.53371,-5.954225 8.55128,-15.455647 14.82222,-15.455647 6.14426,0 8.93134,8.171223 6.71434,21.093158 z m 75.31461,-35.978721 h -14.75888 l 0.0634,-0.760113 c 1.01348,-9.628109 3.29382,-14.695534 10.83162,-15.518991 5.13077,-0.506743 7.41111,-3.167141 7.98119,-6.08091 0.4434,-2.280342 1.83695,-10.19819427 1.83695,-10.19819427 C 271.23395,0.25337127 261.92255,13.048621 259.51553,32.558209 l -0.0634,0.443399 h -0.31671 c -4.81406,0 -10.13485,5.447483 -11.02165,12.35185 l -0.31672,2.533713 h 9.88148 l -8.29791,68.536929 -2.53371,12.28851 c 0.31672,0 0.69677,0.0633 1.01349,0.0633 13.87207,-0.50674 22.74007,-11.46505 24.7037,-27.3641 l 6.46096,-53.524679 h 4.62403 c 4.56068,0 9.88148,-4.560683 10.83162,-12.161822 z m 76.7715,-1.266856 c -17.03922,0 -33.1283,12.541878 -38.06904,32.241494 -4.94074,19.699617 2.53372,43.009774 27.61747,43.009774 25.02042,0 39.46258,-24.260299 39.46258,-44.466658 0,-20.079674 -13.61871,-30.78461 -29.01101,-30.78461 z m 6.90437,36.612149 c -0.8868,8.931337 -4.81406,22.4867 -15.58234,22.4867 -10.83162,0 -9.31139,-15.835704 -8.23457,-23.3735 1.14018,-8.044538 5.63752,-19.509588 15.32897,-19.509588 8.67796,0 9.50142,10.32488 8.48794,20.396388 z M 484.88927,54.348138 c 0,0 -8.55128,26.857355 -9.24805,29.074354 -0.25337,-2.280342 -6.52431,-50.484227 -6.52431,-50.484227 -14.56885,0 -22.36001,10.388223 -26.4773,21.34653 0,0 -10.38822,26.920698 -11.27502,29.201039 -0.0633,-2.090313 -1.58357,-28.884325 -1.58357,-28.884325 -0.8868,-13.428677 -13.1753,-21.599901 -23.12013,-21.599901 l 11.9718,73.034272 c 15.26561,-0.0633 23.50018,-10.388224 27.80749,-21.346532 0,0 9.18471,-23.753557 9.50143,-24.830385 0.0633,1.013485 6.58765,46.176917 6.58765,46.176917 15.32896,0 23.56353,-9.691453 27.99753,-20.269704 L 512,33.001608 c -15.07559,0 -23.05679,10.32488 -27.11073,21.34653 z M 308.85958,0.44339973 296.44439,100.5884 v 0 l -2.53371,12.35185 c 0.31671,0 0.69677,0.0633 1.01348,0.0633 v 0 c 13.36534,-0.19003 22.86676,-11.90845 24.64036,-26.667329 l 7.15774,-57.451936 C 328.87591,11.338365 318.42435,0.44339973 308.85958,0.44339973 Z"
       fill="#4353ff"
       fill-rule="nonzero"
       id="path2" />
  </g>
</svg>
